<svg width="188" height="17" viewBox="0 0 188 17" fill="none" xmlns="http://www.w3.org/2000/svg">
<path d="M8.94518 16.8893C4.10239 16.8893 0.88916 13.6227 0.88916 8.53377C0.88916 3.55599 4.05649 0.222656 8.83042 0.222656C12.847 0.222656 15.67 2.51154 16.0831 5.95599H12.7552C12.4338 3.97821 10.8961 2.8671 8.83042 2.8671C5.93852 2.8671 4.21715 5.13377 4.21715 8.53377C4.21715 12.2671 6.14508 14.2449 8.94518 14.2449C11.3781 14.2449 12.9388 12.9115 13.0994 10.9115V10.6893H8.62386V8.20043H16.1979V10.2449C16.0602 14.2227 13.1683 16.8893 8.94518 16.8893Z" fill="#FBFBFB"/>
<path d="M18.2044 16.6671V0.444878H26.2604C30.3687 0.444878 31.9983 2.37821 31.9983 5.17821C31.9983 7.68932 30.1622 8.88932 28.0277 9.17821V9.24488C29.4048 9.57821 30.0245 10.3115 30.5983 11.756C31.3327 13.5782 31.4475 15.756 32.3885 16.5338V16.6671H28.7162C27.9359 15.9115 27.7522 13.5338 27.3391 12.0893C26.926 10.6004 26.0309 10.4227 24.3554 10.4227H21.4176V16.6671H18.2044ZM21.4176 7.84488H25.9161C27.7982 7.84488 28.6703 6.77821 28.6703 5.40043C28.6703 3.88932 27.5916 3.02266 25.9161 3.02266H21.4176V7.84488Z" fill="#FBFBFB"/>
<path d="M34.1324 16.6671V0.444878H45.5853V3.02266H37.3457V6.88932H44.782V9.4671H37.3457V14.0227H45.7001V16.6671H34.1324Z" fill="#FBFBFB"/>
<path d="M47.9312 16.6671V0.444878H59.3841V3.02266H51.1444V6.88932H58.5808V9.4671H51.1444V14.0227H59.4988V16.6671H47.9312Z" fill="#FBFBFB"/>
<path d="M61.73 16.6671V0.444878H65.6318L71.1861 9.40043C72.8845 12.1115 73.091 13.0004 73.091 13.0004H73.1599L73.114 0.444878H76.3272V16.6671H72.4025L66.6416 7.44488C65.3334 5.35599 64.9891 4.08932 64.9891 4.08932H64.9432V16.6671H61.73Z" fill="#FBFBFB"/>
<path d="M78.7445 16.6671V13.3782H82.0954V16.6671H78.7445Z" fill="#FBFBFB"/>
<path d="M84.5086 16.6671V0.444878H87.7218V6.93377H95.4106V0.444878H98.6238V16.6671H95.4106V9.51154H87.7218V16.6671H84.5086Z" fill="#FBFBFB"/>
<path d="M99.9972 16.6671L106.424 0.444878H109.912L116.431 16.6671H112.988L111.634 12.9338H104.679L103.325 16.6671H99.9972ZM105.597 10.356H110.716L109.224 6.35599C108.191 3.40043 108.168 2.8671 108.168 2.8671H108.122C108.122 2.8671 108.122 3.40043 107.089 6.35599L105.597 10.356Z" fill="#FBFBFB"/>
<path d="M117.799 16.6671V0.444878H125.855C129.964 0.444878 131.593 2.37821 131.593 5.17821C131.593 7.68932 129.757 8.88932 127.622 9.17821V9.24488C129 9.57821 129.619 10.3115 130.193 11.756C130.928 13.5782 131.042 15.756 131.983 16.5338V16.6671H128.311C127.531 15.9115 127.347 13.5338 126.934 12.0893C126.521 10.6004 125.626 10.4227 123.95 10.4227H121.012V16.6671H117.799ZM121.012 7.84488H125.511C127.393 7.84488 128.265 6.77821 128.265 5.40043C128.265 3.88932 127.186 3.02266 125.511 3.02266H121.012V7.84488Z" fill="#FBFBFB"/>
<path d="M137.134 16.6671L130.983 0.444878H134.426C134.426 0.444878 137.754 9.53377 138.098 10.6449C138.649 12.4227 138.901 13.3338 138.901 13.3338H138.947C138.924 13.3338 139.177 12.4227 139.75 10.6449C140.118 9.53377 143.308 0.444878 143.308 0.444878H146.636L140.714 16.6671H137.134Z" fill="#FBFBFB"/>
<path d="M147.952 16.6671V0.444878H159.405V3.02266H151.165V6.88932H158.601V9.4671H151.165V14.0227H159.52V16.6671H147.952Z" fill="#FBFBFB"/>
<path d="M167.497 16.8893C163.228 16.8893 160.657 14.6449 160.657 11.3115H164.329C164.283 13.2004 165.569 14.2449 167.497 14.2449C169.539 14.2449 170.503 13.4671 170.503 12.3115C170.503 11.156 169.677 10.6671 166.739 9.88932C164.054 9.17821 161.116 8.33377 161.116 5.00043C161.116 2.35599 163.503 0.222656 167.267 0.222656C171.146 0.222656 173.625 2.33377 173.625 5.31154H170.067C170.044 3.73377 168.943 2.8671 167.267 2.8671C165.638 2.8671 164.559 3.6671 164.559 4.73377C164.559 6.00043 165.454 6.40043 167.795 7.04488C171.261 7.97821 174.061 8.35599 174.061 11.9782C174.061 14.8893 171.33 16.8893 167.497 16.8893Z" fill="#FBFBFB"/>
<path d="M179.293 16.6671V3.08932H174.221V0.444878H187.556V3.08932H182.506V16.6671H179.293Z" fill="#FBFBFB"/>
</svg>
