<svg width="216" height="20" viewBox="0 0 216 20" fill="none" xmlns="http://www.w3.org/2000/svg">
<path d="M18.1764 0.196155H15.6704C14.8972 0.196155 14.2704 0.810434 14.2704 1.56823V4.02403C14.2704 4.78183 14.8972 5.39615 15.6704 5.39615H18.1764C18.9496 5.39615 19.5765 4.78183 19.5765 4.02403V1.56823C19.5765 0.810434 18.9496 0.196155 18.1764 0.196155Z" fill="#FBFBFB"/>
<path d="M4.20649 14.4H1.5078C0.675061 14.4 0 15.0143 0 15.7721V18.2279C0 18.9857 0.675061 19.6 1.5078 19.6H4.20649C5.03922 19.6 5.71429 18.9857 5.71429 18.2279V15.7721C5.71429 15.0143 5.03922 14.4 4.20649 14.4Z" fill="#FBFBFB"/>
<path d="M3.906 7.23864H1.40008C0.626857 7.23864 0 7.85292 0 8.61072V11.0665C0 11.8243 0.626999 12.4386 1.40022 12.4386H3.906C4.67927 12.4386 5.30612 11.8243 5.30612 11.0665V8.61072C5.30612 7.85292 4.67927 7.23864 3.906 7.23864Z" fill="#FBFBFB"/>
<path d="M11.1037 14.3614H8.59777C7.82455 14.3614 7.19769 14.9756 7.19769 15.7334L7.19755 18.1892C7.19755 18.947 7.82469 19.5614 8.59792 19.5614H11.1037C11.877 19.5614 12.5038 18.947 12.5038 18.1892V15.7334C12.5038 14.9756 11.877 14.3614 11.1037 14.3614Z" fill="#FBFBFB"/>
<path d="M3.906 0.0539201H1.40008C0.626857 0.0539201 0 0.668199 0 1.426V3.8818C0 4.6396 0.626999 5.25392 1.40022 5.25392H3.906C4.67927 5.25392 5.30612 4.6396 5.30612 3.8818V1.426C5.30612 0.668199 4.67927 0.0539201 3.906 0.0539201Z" fill="#FBFBFB"/>
<path d="M11.2974 7.31092H8.79151C8.01828 7.31092 7.39143 7.9252 7.39143 8.683V11.1388C7.39143 11.8966 8.01843 12.5109 8.79165 12.5109H11.2974C12.0707 12.5109 12.6975 11.8966 12.6975 11.1388V8.683C12.6975 7.9252 12.0707 7.31092 11.2974 7.31092Z" fill="#FBFBFB"/>
<path d="M18.3333 14.3614H15.8274C15.0542 14.3614 14.4273 14.9756 14.4273 15.7334V18.1892C14.4273 18.947 15.0543 19.5614 15.8276 19.5614H18.3333C19.1066 19.5614 19.7335 18.947 19.7335 18.1892V15.7334C19.7335 14.9756 19.1066 14.3614 18.3333 14.3614Z" fill="#FBFBFB"/>
<path d="M10.9941 0.139817H8.4882C7.71498 0.139817 7.08812 0.754096 7.08812 1.5119V3.96769C7.08812 4.72549 7.71512 5.33982 8.48834 5.33982H10.9941C11.7674 5.33982 12.3942 4.72504 12.3942 3.96724V1.5119C12.3942 0.754096 11.7674 0.139817 10.9941 0.139817Z" fill="#FBFBFB"/>
<path d="M18.1523 7.45364H15.6464C14.8732 7.45364 14.2463 8.06792 14.2463 8.82572V11.2815C14.2463 12.0393 14.8733 12.6536 15.6466 12.6536H18.1523C18.9256 12.6536 19.5525 12.0393 19.5525 11.2815V8.82572C19.5525 8.06792 18.9256 7.45364 18.1523 7.45364Z" fill="#FBFBFB"/>
<path d="M36.9452 18.8893C32.1024 18.8893 28.8892 15.6227 28.8892 10.5338C28.8892 5.55599 32.0565 2.22266 36.8304 2.22266C40.847 2.22266 43.67 4.51154 44.0831 7.95599H40.7552C40.4338 5.97821 38.8961 4.8671 36.8304 4.8671C33.9385 4.8671 32.2171 7.13377 32.2171 10.5338C32.2171 14.2671 34.1451 16.2449 36.9452 16.2449C39.3781 16.2449 40.9388 14.9115 41.0994 12.9115V12.6893H36.6239V10.2004H44.1979V12.2449C44.0602 16.2227 41.1683 18.8893 36.9452 18.8893Z" fill="#FBFBFB"/>
<path d="M46.2044 18.6671V2.44488H54.2604C58.3687 2.44488 59.9983 4.37821 59.9983 7.17821C59.9983 9.68932 58.1622 10.8893 56.0277 11.1782V11.2449C57.4048 11.5782 58.0245 12.3115 58.5983 13.756C59.3327 15.5782 59.4475 17.756 60.3885 18.5338V18.6671H56.7162C55.9359 17.9115 55.7522 15.5338 55.3391 14.0893C54.926 12.6004 54.0309 12.4227 52.3554 12.4227H49.4176V18.6671H46.2044ZM49.4176 9.84488H53.9161C55.7982 9.84488 56.6703 8.77821 56.6703 7.40043C56.6703 5.88932 55.5916 5.02266 53.9161 5.02266H49.4176V9.84488Z" fill="#FBFBFB"/>
<path d="M62.1324 18.6671V2.44488H73.5853V5.02266H65.3457V8.88932H72.782V11.4671H65.3457V16.0227H73.7001V18.6671H62.1324Z" fill="#FBFBFB"/>
<path d="M75.9312 18.6671V2.44488H87.3841V5.02266H79.1444V8.88932H86.5808V11.4671H79.1444V16.0227H87.4988V18.6671H75.9312Z" fill="#FBFBFB"/>
<path d="M89.73 18.6671V2.44488H93.6318L99.1861 11.4004C100.884 14.1115 101.091 15.0004 101.091 15.0004H101.16L101.114 2.44488H104.327V18.6671H100.402L94.6416 9.44488C93.3334 7.35599 92.9891 6.08932 92.9891 6.08932H92.9432V18.6671H89.73Z" fill="#FBFBFB"/>
<path d="M106.744 18.6671V15.3782H110.095V18.6671H106.744Z" fill="#FBFBFB"/>
<path d="M112.509 18.6671V2.44488H115.722V8.93377H123.411V2.44488H126.624V18.6671H123.411V11.5115H115.722V18.6671H112.509Z" fill="#FBFBFB"/>
<path d="M127.997 18.6671L134.424 2.44488H137.912L144.431 18.6671H140.988L139.634 14.9338H132.679L131.325 18.6671H127.997ZM133.597 12.356H138.716L137.224 8.35599C136.191 5.40043 136.168 4.8671 136.168 4.8671H136.122C136.122 4.8671 136.122 5.40043 135.089 8.35599L133.597 12.356Z" fill="#FBFBFB"/>
<path d="M145.799 18.6671V2.44488H153.855C157.964 2.44488 159.593 4.37821 159.593 7.17821C159.593 9.68932 157.757 10.8893 155.622 11.1782V11.2449C157 11.5782 157.619 12.3115 158.193 13.756C158.928 15.5782 159.042 17.756 159.983 18.5338V18.6671H156.311C155.531 17.9115 155.347 15.5338 154.934 14.0893C154.521 12.6004 153.626 12.4227 151.95 12.4227H149.012V18.6671H145.799ZM149.012 9.84488H153.511C155.393 9.84488 156.265 8.77821 156.265 7.40043C156.265 5.88932 155.186 5.02266 153.511 5.02266H149.012V9.84488Z" fill="#FBFBFB"/>
<path d="M165.134 18.6671L158.983 2.44488H162.426C162.426 2.44488 165.754 11.5338 166.098 12.6449C166.649 14.4227 166.901 15.3338 166.901 15.3338H166.947C166.924 15.3338 167.177 14.4227 167.75 12.6449C168.118 11.5338 171.308 2.44488 171.308 2.44488H174.636L168.714 18.6671H165.134Z" fill="#FBFBFB"/>
<path d="M175.952 18.6671V2.44488H187.405V5.02266H179.165V8.88932H186.601V11.4671H179.165V16.0227H187.52V18.6671H175.952Z" fill="#FBFBFB"/>
<path d="M195.497 18.8893C191.228 18.8893 188.657 16.6449 188.657 13.3115H192.329C192.283 15.2004 193.569 16.2449 195.497 16.2449C197.539 16.2449 198.503 15.4671 198.503 14.3115C198.503 13.156 197.677 12.6671 194.739 11.8893C192.054 11.1782 189.116 10.3338 189.116 7.00043C189.116 4.35599 191.503 2.22266 195.267 2.22266C199.146 2.22266 201.625 4.33377 201.625 7.31154H198.067C198.044 5.73377 196.943 4.8671 195.267 4.8671C193.638 4.8671 192.559 5.6671 192.559 6.73377C192.559 8.00043 193.454 8.40043 195.795 9.04488C199.261 9.97821 202.061 10.356 202.061 13.9782C202.061 16.8893 199.33 18.8893 195.497 18.8893Z" fill="#FBFBFB"/>
<path d="M207.293 18.6671V5.08932H202.221V2.44488H215.556V5.08932H210.506V18.6671H207.293Z" fill="#FBFBFB"/>
</svg>
