<svg width="20" height="20" viewBox="0 0 20 20" fill="none" xmlns="http://www.w3.org/2000/svg">
<symbol id="logo" viewBox="0 0 20 20" fill="none">
<path d="M18.1764 0.196155H15.6704C14.8972 0.196155 14.2704 0.810434 14.2704 1.56823V4.02403C14.2704 4.78183 14.8972 5.39615 15.6704 5.39615H18.1764C18.9496 5.39615 19.5765 4.78183 19.5765 4.02403V1.56823C19.5765 0.810434 18.9496 0.196155 18.1764 0.196155Z" fill="#FBFBFB"/>
<path d="M4.20649 14.4H1.5078C0.675061 14.4 0 15.0143 0 15.7721V18.2279C0 18.9857 0.675061 19.6 1.5078 19.6H4.20649C5.03922 19.6 5.71429 18.9857 5.71429 18.2279V15.7721C5.71429 15.0143 5.03922 14.4 4.20649 14.4Z" fill="#FBFBFB"/>
<path d="M3.906 7.23864H1.40008C0.626857 7.23864 0 7.85292 0 8.61072V11.0665C0 11.8243 0.626999 12.4386 1.40022 12.4386H3.906C4.67927 12.4386 5.30612 11.8243 5.30612 11.0665V8.61072C5.30612 7.85292 4.67927 7.23864 3.906 7.23864Z" fill="#FBFBFB"/>
<path d="M11.1037 14.3614H8.59777C7.82455 14.3614 7.19769 14.9756 7.19769 15.7334L7.19755 18.1892C7.19755 18.947 7.82469 19.5614 8.59792 19.5614H11.1037C11.877 19.5614 12.5038 18.947 12.5038 18.1892V15.7334C12.5038 14.9756 11.877 14.3614 11.1037 14.3614Z" fill="#FBFBFB"/>
<path d="M3.906 0.0539201H1.40008C0.626857 0.0539201 0 0.668199 0 1.426V3.8818C0 4.6396 0.626999 5.25392 1.40022 5.25392H3.906C4.67927 5.25392 5.30612 4.6396 5.30612 3.8818V1.426C5.30612 0.668199 4.67927 0.0539201 3.906 0.0539201Z" fill="#FBFBFB"/>
<path d="M11.2974 7.31092H8.79151C8.01828 7.31092 7.39143 7.9252 7.39143 8.683V11.1388C7.39143 11.8966 8.01843 12.5109 8.79165 12.5109H11.2974C12.0707 12.5109 12.6975 11.8966 12.6975 11.1388V8.683C12.6975 7.9252 12.0707 7.31092 11.2974 7.31092Z" fill="#FBFBFB"/>
<path d="M18.3333 14.3614H15.8274C15.0542 14.3614 14.4273 14.9756 14.4273 15.7334V18.1892C14.4273 18.947 15.0543 19.5614 15.8276 19.5614H18.3333C19.1066 19.5614 19.7335 18.947 19.7335 18.1892V15.7334C19.7335 14.9756 19.1066 14.3614 18.3333 14.3614Z" fill="#FBFBFB"/>
<path d="M10.9941 0.139817H8.4882C7.71498 0.139817 7.08812 0.754096 7.08812 1.5119V3.96769C7.08812 4.72549 7.71512 5.33982 8.48834 5.33982H10.9941C11.7674 5.33982 12.3942 4.72504 12.3942 3.96724V1.5119C12.3942 0.754096 11.7674 0.139817 10.9941 0.139817Z" fill="#FBFBFB"/>
<path d="M18.1523 7.45364H15.6464C14.8732 7.45364 14.2463 8.06792 14.2463 8.82572V11.2815C14.2463 12.0393 14.8733 12.6536 15.6466 12.6536H18.1523C18.9256 12.6536 19.5525 12.0393 19.5525 11.2815V8.82572C19.5525 8.06792 18.9256 7.45364 18.1523 7.45364Z" fill="#FBFBFB"/>
</symbol>
</svg>

<svg width="188" height="17" viewBox="0 0 188 17" fill="none" xmlns="http://www.w3.org/2000/svg">
<symbol id="logo-text" viewBox="0 0 188 17" fill="none">
<path d="M8.94469 16.8893C4.1019 16.8893 0.888672 13.6227 0.888672 8.53377C0.888672 3.55599 4.056 0.222656 8.82994 0.222656C12.8465 0.222656 15.6695 2.51154 16.0827 5.95599H12.7547C12.4333 3.97821 10.8956 2.8671 8.82994 2.8671C5.93803 2.8671 4.21666 5.13377 4.21666 8.53377C4.21666 12.2671 6.1446 14.2449 8.94469 14.2449C11.3776 14.2449 12.9383 12.9115 13.0989 10.9115V10.6893H8.62337V8.20043H16.1974V10.2449C16.0597 14.2227 13.1678 16.8893 8.94469 16.8893Z" fill="#FBFBFB"/>
<path d="M18.2039 16.6671V0.444878H26.2599C30.3682 0.444878 31.9978 2.37821 31.9978 5.17821C31.9978 7.68932 30.1617 8.88932 28.0272 9.17821V9.24488C29.4043 9.57821 30.024 10.3115 30.5978 11.756C31.3322 13.5782 31.447 15.756 32.388 16.5338V16.6671H28.7157C27.9354 15.9115 27.7518 13.5338 27.3386 12.0893C26.9255 10.6004 26.0304 10.4227 24.3549 10.4227H21.4171V16.6671H18.2039ZM21.4171 7.84488H25.9156C27.7977 7.84488 28.6698 6.77821 28.6698 5.40043C28.6698 3.88932 27.5911 3.02266 25.9156 3.02266H21.4171V7.84488Z" fill="#FBFBFB"/>
<path d="M34.132 16.6671V0.444878H45.5848V3.02266H37.3452V6.88932H44.7815V9.4671H37.3452V14.0227H45.6996V16.6671H34.132Z" fill="#FBFBFB"/>
<path d="M47.9307 16.6671V0.444878H59.3836V3.02266H51.144V6.88932H58.5803V9.4671H51.144V14.0227H59.4983V16.6671H47.9307Z" fill="#FBFBFB"/>
<path d="M61.7295 16.6671V0.444878H65.6313L71.1856 9.40043C72.884 12.1115 73.0906 13.0004 73.0906 13.0004H73.1594L73.1135 0.444878H76.3267V16.6671H72.402L66.6411 7.44488C65.3329 5.35599 64.9886 4.08932 64.9886 4.08932H64.9427V16.6671H61.7295Z" fill="#FBFBFB"/>
<path d="M78.744 16.6671V13.3782H82.0949V16.6671H78.744Z" fill="#FBFBFB"/>
<path d="M84.5081 16.6671V0.444878H87.7213V6.93377H95.4101V0.444878H98.6233V16.6671H95.4101V9.51154H87.7213V16.6671H84.5081Z" fill="#FBFBFB"/>
<path d="M99.9967 16.6671L106.423 0.444878H109.912L116.43 16.6671H112.987L111.633 12.9338H104.679L103.325 16.6671H99.9967ZM105.597 10.356H110.715L109.223 6.35599C108.19 3.40043 108.167 2.8671 108.167 2.8671H108.122C108.122 2.8671 108.122 3.40043 107.089 6.35599L105.597 10.356Z" fill="#FBFBFB"/>
<path d="M117.799 16.6671V0.444878H125.855C129.963 0.444878 131.593 2.37821 131.593 5.17821C131.593 7.68932 129.757 8.88932 127.622 9.17821V9.24488C128.999 9.57821 129.619 10.3115 130.193 11.756C130.927 13.5782 131.042 15.756 131.983 16.5338V16.6671H128.311C127.53 15.9115 127.347 13.5338 126.933 12.0893C126.52 10.6004 125.625 10.4227 123.95 10.4227H121.012V16.6671H117.799ZM121.012 7.84488H125.51C127.392 7.84488 128.265 6.77821 128.265 5.40043C128.265 3.88932 127.186 3.02266 125.51 3.02266H121.012V7.84488Z" fill="#FBFBFB"/>
<path d="M137.133 16.6671L130.982 0.444878H134.425C134.425 0.444878 137.753 9.53377 138.097 10.6449C138.648 12.4227 138.901 13.3338 138.901 13.3338H138.947C138.924 13.3338 139.176 12.4227 139.75 10.6449C140.117 9.53377 143.307 0.444878 143.307 0.444878H146.635L140.714 16.6671H137.133Z" fill="#FBFBFB"/>
<path d="M147.951 16.6671V0.444878H159.404V3.02266H151.165V6.88932H158.601V9.4671H151.165V14.0227H159.519V16.6671H147.951Z" fill="#FBFBFB"/>
<path d="M167.496 16.8893C163.227 16.8893 160.657 14.6449 160.657 11.3115H164.329C164.283 13.2004 165.568 14.2449 167.496 14.2449C169.539 14.2449 170.503 13.4671 170.503 12.3115C170.503 11.156 169.677 10.6671 166.739 9.88932C164.053 9.17821 161.116 8.33377 161.116 5.00043C161.116 2.35599 163.503 0.222656 167.267 0.222656C171.145 0.222656 173.624 2.33377 173.624 5.31154H170.067C170.044 3.73377 168.942 2.8671 167.267 2.8671C165.637 2.8671 164.558 3.6671 164.558 4.73377C164.558 6.00043 165.453 6.40043 167.795 7.04488C171.26 7.97821 174.06 8.35599 174.06 11.9782C174.06 14.8893 171.329 16.8893 167.496 16.8893Z" fill="#FBFBFB"/>
<path d="M179.293 16.6671V3.08932H174.22V0.444878H187.555V3.08932H182.506V16.6671H179.293Z" fill="#FBFBFB"/>
</symbol>
</svg>

